<?xml version="1.0" encoding="utf-8"?>
<!-- Generator: Adobe Illustrator 25.0.1, SVG Export Plug-In . SVG Version: 6.00 Build 0)  -->
<svg version="1.0" id="Layer_1" xmlns="http://www.w3.org/2000/svg" xmlns:xlink="http://www.w3.org/1999/xlink" x="0px" y="0px"
	 viewBox="50 75 220 65" style="enable-background:new 0 0 318 216;" xml:space="preserve">
<style type="text/css">
	.st0{fill:#1591FE;}
	.st1{fill:#FFFFFF;}
	.st2{fill:#18304B;}
	.st3{fill:none;}
</style>
<path class="st0" d="M74,88.6c-1.4,0-2.9,0.1-4.3,0.4c-2.8,0.6-5.5,1.7-7.9,3.3c-1.2,0.8-2.3,1.7-3.4,2.7c-1,1-1.9,2.1-2.7,3.3
	c-0.8,1.2-1.5,2.5-2,3.8c-2.2,5.4-2.2,11.4,0,16.8c0.5,1.3,1.2,2.6,2,3.8c0.8,1.2,1.7,2.3,2.7,3.3c1,1,2.1,1.9,3.3,2.7
	c2.4,1.6,5.1,2.7,7.9,3.3c2.8,0.5,5.8,0.5,8.6,0c1.4-0.3,2.8-0.7,4.1-1.3c2.7-1.1,5.1-2.7,7.1-4.8c1-1,1.9-2.1,2.7-3.3
	c0.8-1.2,1.5-2.5,2-3.8c1.1-2.7,1.7-5.5,1.7-8.4v-22L74,88.6z"/>
<path class="st1" d="M65.9,111.1c-0.9-0.9-1.5-2-1.7-3.2c-0.2-1.2-0.1-2.5,0.5-3.6l1.1,1.1c0.4-1.4,1.5-2.5,2.9-2.9l-1.1-1.1
	c1.3-0.6,2.9-0.8,4.3-0.3c0.7,0.2,1.4,0.5,2,1c1.8,1.4,2.7,3.6,2.3,5.8c-0.3,1.5-1,2.8-2.2,3.7c-1.2,0.9-2.6,1.4-4.1,1.3
	c-0.7,0-1.4-0.2-2.1-0.5C67.1,112,66.5,111.6,65.9,111.1L65.9,111.1z M75.9,101.1c-3.2-3.2-8.4-3.2-11.6,0c-3.2,3.2-3.2,8.4,0,11.6
	c2.9,3,7.6,3.2,10.9,0.6l2.4,2.4c-0.4,0.7-0.3,1.5,0.3,2l4.5,4.4c0.3,0.3,0.8,0.5,1.2,0.5c0.5,0,0.9-0.2,1.2-0.5l0.5-0.5
	c0.3-0.3,0.5-0.8,0.5-1.2c0-0.5-0.2-0.9-0.5-1.2l-4.4-4.4c-0.5-0.6-1.3-0.7-2-0.3l-2.4-2.4C79.2,108.6,79,103.9,75.9,101.1
	L75.9,101.1z"/>
<path class="st2" d="M116.8,97.8c0-3.7,1.9-6.5,7.3-6.5c-1-2.8-0.4-5.9,1.6-8.2c-0.6,0-1.2-0.1-1.7-0.1c-10.4,0-17.6,5.2-17.6,14.5
	V99H102v7.7h4.4v25.8h10.5v-25.8h5.6V99h-5.6V97.8z M126.7,99h10.4v33.5h-10.4V99z M246,110c0-4.9-0.1-8.2-0.3-11h9l0.3,6.2h0.3
	c1.2-4,4.9-6.8,9.1-6.9c0.7,0,1.5,0,2.2,0.1v9.8c-0.9-0.2-1.9-0.3-2.8-0.3c-3.9,0-6.5,2.1-7.1,5.3c-0.1,0.8-0.2,1.5-0.2,2.3v17H246
	V110z M234,112c0-2.5-1.1-6.8-5.9-6.8c-4.4,0-6.2,4-6.4,6.8H234z M221.7,119.1c0.3,4.3,4.6,6.4,9.5,6.4c3.1,0,6.3-0.4,9.3-1.4
	l1.4,7.1c-3.9,1.4-8,2.1-12.1,2.1c-11.4,0-17.9-6.6-17.9-17.1c0-8.5,5.3-17.9,16.9-17.9c10.8,0,14.9,8.4,14.9,16.7
	c0,1.4-0.1,2.8-0.3,4.1L221.7,119.1z M199.3,113.2c0-0.6-0.1-1.2-0.1-1.9c-0.5-3-3.1-5.1-6.1-5.1c-4.7,0-7.2,4.3-7.2,9.5
	c0,5.7,2.8,9.3,7.1,9.3c0.7,0,1.4-0.1,2.1-0.4c1.4-0.5,2.5-1.4,3.2-2.7c0.4-0.6,0.6-1.3,0.7-2c0.2-0.8,0.3-1.6,0.3-2.4V113.2z
	 M209.8,83.9v38.7c0,3.8,0.1,7.8,0.3,10h-9.3l-0.5-4.9h-0.1c-2.2,3.7-6.2,5.9-10.5,5.7c-8,0-14.3-6.8-14.3-17.2
	c-0.1-11.3,7-17.8,15-17.8c4.1,0,7.3,1.4,8.9,3.8h0.1V83.8L209.8,83.9z M141.3,109.7c0-4.2-0.1-7.8-0.3-10.7h9.1l0.5,4.6h0.2
	c2.3-3.4,6.2-5.4,10.4-5.3c6.9,0,12,4.5,12,14.4v19.9h-10.4V114c0-4.3-1.5-7.3-5.3-7.3c-2.4,0-4.6,1.6-5.3,3.9
	c-0.3,0.8-0.4,1.7-0.4,2.6v19.3h-10.4V109.7z"/>
<path class="st0" d="M138.1,88.6c0,0.8-0.2,1.6-0.5,2.4c-0.3,0.8-0.8,1.4-1.3,2c-0.6,0.6-1.3,1-2,1.3c-2.3,0.9-4.9,0.4-6.7-1.3
	c-1.8-1.8-2.3-4.4-1.3-6.7c0.3-0.7,0.8-1.4,1.3-2c2.4-2.4,6.3-2.4,8.7,0c0.6,0.6,1,1.3,1.3,2C137.9,87,138.1,87.8,138.1,88.6z"/>
<rect x="51.4" y="82.4" class="st3" width="214.9" height="51.2"/>
</svg>
